<svg class="sh-truck" xmlns="http://www.w3.org/2000/svg" version="1.1" xmlns:xlink="http://www.w3.org/1999/xlink" width="512" height="512" x="0" y="0" viewBox="0 0 512 512" style="enable-background:new 0 0 512 512" xml:space="preserve"><g><path d="M465.781 260.824a8.04 8.04 0 0 0 7.002-11.989L452.7 197.466a8.033 8.033 0 0 0-7.487-5.109h-43.104a8.034 8.034 0 0 0-7.759 5.935l-14.172 52.394a8.054 8.054 0 0 0 1.376 6.989 8.045 8.045 0 0 0 6.383 3.15h77.759c.031-.007.055-.001.085-.001zm-67.344-16.074 9.826-36.323h31.464l14.198 36.323zm-355.166 7.437c0 4.439-3.6 8.038-8.038 8.038H14.037a8.036 8.036 0 1 1 0-16.073h21.197a8.036 8.036 0 0 1 8.037 8.035zm-30.008-62.396c0-4.438 3.6-8.035 8.038-8.035H158c4.439 0 8.04 3.598 8.04 8.035a8.04 8.04 0 0 1-8.04 8.038h-50.916L97.65 232.85a8.04 8.04 0 0 1-7.757 5.948 8.063 8.063 0 0 1-2.094-.28 8.04 8.04 0 0 1-5.671-9.854l8.306-30.836H21.301a8.037 8.037 0 0 1-8.038-8.037zm492.233 76.025-33.34-89.547a8.036 8.036 0 0 0-7.532-5.23h-72.318l12.083-44.637a8.047 8.047 0 0 0-1.377-6.986 8.039 8.039 0 0 0-6.383-3.149H82.387a8.039 8.039 0 0 0-8.038 8.036c0 4.438 3.6 8.037 8.038 8.037h25.801l-9.15 33.929a8.04 8.04 0 0 0 7.765 10.133 8.04 8.04 0 0 0 7.755-5.948l10.278-38.114h261.292l-57.403 212.077h-149.99c-4.003-19.416-21.227-34.057-41.81-34.057S99.116 325 95.114 344.416H67.413l22.83-84.191h79.665a8.036 8.036 0 1 0 0-16.073H58.69a8.037 8.037 0 1 0 0 16.073h14.896l-24.437 90.123a8.025 8.025 0 0 0 1.374 6.984 8.024 8.024 0 0 0 6.384 3.158h38.021a42.455 42.455 0 0 0 8.677 19.172H71.789a8.037 8.037 0 1 0 0 16.072h61.801c.38 0 .747-.059 1.116-.109.738.037 1.469.109 2.219.109 20.996 0 38.458-15.246 41.995-35.244h189.05a42.497 42.497 0 0 0 8.677 19.172h-31.815c-4.438 0-8.039 3.598-8.039 8.037s3.601 8.035 8.039 8.035h60.61a8.11 8.11 0 0 0 1.513-.15c1 .072 1.995.15 3.011.15 20.996 0 38.462-15.246 41.998-35.244h32.902a8.039 8.039 0 0 0 7.756-5.93l8.454-31.08a8.02 8.02 0 0 0-.583-5.732l-4.03-7.977 9.323-39.297a8.029 8.029 0 0 0-.29-4.658zM136.925 379.662c-14.676 0-26.614-11.941-26.614-26.615 0-14.672 11.938-26.615 26.614-26.615 14.673 0 26.612 11.943 26.612 26.615.001 14.674-11.938 26.615-26.612 26.615zm273.04 0c-14.672 0-26.611-11.941-26.611-26.615 0-14.672 11.939-26.615 26.611-26.615 14.677 0 26.614 11.943 26.614 26.615.001 14.674-11.937 26.615-26.614 26.615zm68.758-35.246h-26.946c-4.003-19.416-21.229-34.057-41.812-34.057s-37.807 14.641-41.81 34.057H345.38l42.575-157.303h71.085l30.541 82.026-7.974 33.604H464.98c-4.438 0-8.039 3.596-8.039 8.035s3.6 8.035 8.039 8.035h18.04l1.735 3.432zM25.17 124.302c0-4.438 3.6-8.036 8.038-8.036h21.075a8.039 8.039 0 0 1 8.039 8.036c0 4.438-3.6 8.037-8.039 8.037H33.208a8.038 8.038 0 0 1-8.038-8.037zm148.608 65.489c0-4.438 3.6-8.035 8.039-8.035h21.075c4.439 0 8.04 3.598 8.04 8.035a8.04 8.04 0 0 1-8.04 8.038h-21.075a8.039 8.039 0 0 1-8.039-8.038z" fill="currentColor" opacity="1" data-original="#000000"></path></g></svg>