<svg data-animation="dl-fade-in-left" data-delay="500ms" data-duration="1500ms" xmlns="http://www.w3.org/2000/svg" viewBox="0 0 96 271" style="animation-delay: 500ms; animation-duration: 1500ms;"><defs></defs><g><g><path fill="currentColor" d="M96,107v1a51.26,51.26,0,0,0-3.09,4.3Q67.44,156,42,199.7,22.09,233.89,2,268a28.61,28.61,0,0,1-1-5.26Q1,134.62.94,6.48C.93,2.49,2,.89,6.26.92c23.64.18,47.29.12,70.93.14-.63,1.34-1.2,2.72-1.92,4Q48.65,53.38,22,101.67c-.84,1.52-1.59,3.09-2.73,5.33Z"></path><path fill="#df1119" d="M78,0l-.81,1.06C53.55,1,29.9,1.1,6.26.92,2,.89.93,2.49.94,6.48q.12,128.13.1,256.27A28.61,28.61,0,0,0,2,268l-2,3V0Z"></path></g></g></svg>